<?xml version="1.0" encoding="utf-8"?>
<!-- Generator: Adobe Illustrator 24.0.1, SVG Export Plug-In . SVG Version: 6.00 Build 0)  -->
<svg version="1.1" id="Capa_1" xmlns="http://www.w3.org/2000/svg" xmlns:xlink="http://www.w3.org/1999/xlink" x="0px" y="0px"
	 viewBox="0 0 455.99 455.99" style="enable-background:new 0 0 455.99 455.99;" xml:space="preserve">
<style type="text/css">
	.st0{fill:#FFFFFF;}
</style>
<g>
	<g>
		<g>
			<g>
				<path class="st0" d="M312.14,122.36l-83.54,83.57l-74.96-83.57c-5.93-5.93-15.57-5.93-21.49,0c-5.93,5.93-5.93,15.56,0,21.49
					l74.96,83.57l-84.72,84.72c-5.93,5.93-5.93,15.6,0,21.49c5.93,5.93,15.56,5.93,21.49,0l83.57-83.54l74.96,83.54
					c5.9,5.93,15.57,5.93,21.46,0c5.93-5.9,5.93-15.57,0-21.49l-74.99-83.54l84.72-84.75c5.93-5.93,5.93-15.57,0-21.49
					C327.68,116.43,318.07,116.43,312.14,122.36z"/>
			</g>
		</g>
	</g>
</g>
</svg>
