<svg xmlns="http://www.w3.org/2000/svg" width="100" height="100" viewBox="0 0 100 100"><g transform="translate(-332 -1306)"><g transform="translate(332 1306)" fill="#1c2225" stroke="#4a4a4a" stroke-width="2"><circle cx="50" cy="50" r="50" stroke="none"/><circle cx="50" cy="50" r="49" fill="none"/></g><g transform="translate(346.059 1259.189)"><path d="M59.656,77.811H14.288a3.3,3.3,0,0,0-3.29,3.3v26.187a.636.636,0,0,0,0,.525v4.543a3.294,3.294,0,0,0,3.29,3.29H59.656a3.293,3.293,0,0,0,3.29-3.29V81.108A3.3,3.3,0,0,0,59.656,77.811ZM14.288,79.082H59.656a2.025,2.025,0,0,1,2.019,2.026v23.563L51.607,97.9h0a4.86,4.86,0,0,0-5.172,0l-8.6,5.778-7.864-7.631a4.752,4.752,0,0,0-6.136-.011l-11.57,10.079v-25A2.025,2.025,0,0,1,14.288,79.082Zm-2.019,33.281V107.8L24.686,96.979l.026-.024a3.481,3.481,0,0,1,4.378,0l9.643,9.357,8.31,8.069H14.288A2.021,2.021,0,0,1,12.269,112.363Zm47.387,2.019H48.869L39.62,105.4l-.848-.823,8.373-5.628a3.576,3.576,0,0,1,3.753,0L61.674,106.2v6.161A2.021,2.021,0,0,1,59.656,114.382Z" fill="#4a4a4a"/><path d="M241.142,164.314a5.271,5.271,0,1,0-5.268-5.268A5.277,5.277,0,0,0,241.142,164.314Zm0-9.271a4,4,0,1,1-4,4A4.008,4.008,0,0,1,241.142,155.043Z" transform="translate(-201.111 -67.916)" fill="#4a4a4a"/></g></g></svg>